<svg width="56" height="56" viewBox="0 0 56 56" fill="none" xmlns="http://www.w3.org/2000/svg">
<g id="icons8-abc 1">
<path id="Vector" d="M24.923 7.46655C24.0345 7.46655 23.3901 7.66322 22.9944 8.06082C22.5968 8.45842 22.4001 9.10966 22.4001 10.015V25.4514C22.4001 26.34 22.5934 26.9841 22.9798 27.391C23.3662 27.7961 24.014 27.9999 24.9194 27.9999H31.1975C32.2802 27.9999 33.2275 27.9459 34.0376 27.8395C34.8515 27.7331 35.5706 27.5466 36.1959 27.2853C37.1965 26.8466 37.9887 26.1675 38.5767 25.2473C39.1647 24.327 39.459 23.2927 39.459 22.1447C39.459 19.662 38.1113 17.9903 35.4121 17.1317C37.4673 16.1797 38.4928 14.677 38.4928 12.6218C38.4928 12.0244 38.3971 11.4568 38.2011 10.9192C38.0051 10.3816 37.7177 9.89415 37.3444 9.44989C36.971 9.00562 36.5427 8.63818 36.0574 8.34884C35.4881 8.00351 34.8438 7.77018 34.1251 7.64884C33.4046 7.52751 32.553 7.46655 31.573 7.46655H24.923ZM26.56 10.591H29.936C31.448 10.591 32.5747 10.7598 33.3121 11.1014C34.0494 11.443 34.4204 12.1326 34.4204 13.1686C34.4204 13.654 34.3037 14.0928 34.0704 14.4848C33.7717 15.0354 33.3381 15.4081 32.7725 15.6041C32.2069 15.8001 31.4059 15.8994 30.3699 15.8994H26.56V10.591ZM26.56 18.8817H30.8876C32.3343 18.8817 33.4244 19.115 34.1543 19.5817C34.8823 20.0483 35.2444 20.7988 35.2444 21.8348C35.2444 23.8601 33.8373 24.8754 31.0261 24.8754H26.56V18.8817ZM14.7293 22.3999C14.1767 22.3999 13.7173 22.5061 13.3402 22.7171C12.965 22.928 12.662 23.2049 12.4324 23.5483C12.2028 23.8918 11.9869 24.3237 11.7834 24.8426C11.5818 25.3615 11.4058 25.8074 11.2621 26.177L6.18343 39.0723C5.97623 39.5875 5.82459 39.9897 5.73499 40.2791C5.64353 40.5684 5.6001 40.8469 5.6001 41.1176C5.6001 41.5861 5.79516 42.0076 6.18343 42.3791C6.5717 42.7487 7.01559 42.9332 7.52145 42.9332C8.11879 42.9332 8.5471 42.7591 8.80843 42.4119C9.06976 42.0628 9.38675 41.3924 9.75635 40.3994L10.7043 37.8546H18.7798L19.7277 40.3447C19.8546 40.6527 20.0043 41.0079 20.1798 41.4093C20.3553 41.8106 20.5226 42.1084 20.6756 42.3025C20.8287 42.4966 21.0185 42.6499 21.2444 42.7619C21.4702 42.8757 21.7419 42.9332 22.0574 42.9332C22.5987 42.9332 23.0601 42.7398 23.4465 42.3572C23.8291 41.9745 24.0225 41.5531 24.0225 41.0921C24.0225 40.6497 23.8206 39.941 23.4136 38.9666L18.2256 26.1551C17.9811 25.513 17.7791 25.0011 17.6204 24.6166C17.4617 24.232 17.2703 23.8715 17.0407 23.5374C16.8111 23.2033 16.5081 22.9335 16.1329 22.7207C15.7577 22.5079 15.2893 22.3999 14.7293 22.3999ZM14.7037 26.64L17.697 34.8322H11.7616L14.7037 26.64ZM42.1642 29.8666C40.8463 29.8666 39.6066 30.1017 38.4418 30.5702C37.277 31.0387 36.26 31.7231 35.3939 32.6228C34.5277 33.5225 33.8607 34.6039 33.3959 35.8676C32.9311 37.1313 32.6959 38.5609 32.6959 40.1587C32.6959 41.1443 32.7882 42.076 32.973 42.9515C33.1578 43.8269 33.4383 44.6469 33.8079 45.4197C34.1775 46.1925 34.6214 46.8889 35.1459 47.5124C35.7321 48.1993 36.3782 48.7549 37.0782 49.1749C37.7782 49.5949 38.5565 49.9031 39.4152 50.1009C40.2739 50.3007 41.2263 50.3999 42.2735 50.3999C43.6567 50.3999 44.8651 50.1787 45.9048 49.7363C46.9427 49.2939 47.7959 48.7176 48.4642 48.0082C49.1324 47.2989 49.6217 46.5781 49.9334 45.8426C50.2452 45.1071 50.4001 44.4228 50.4001 43.79C50.4001 43.2935 50.2332 42.8736 49.8897 42.5395C49.5462 42.2053 49.1353 42.04 48.6574 42.04C48.0974 42.04 47.688 42.2018 47.436 42.5322C47.184 42.8626 46.9734 43.291 46.8017 43.8155C46.3947 44.9262 45.7923 45.7654 44.9933 46.3384C44.1944 46.9115 43.2139 47.1988 42.0584 47.1988C40.9926 47.1988 40.0646 46.95 39.2694 46.4442C38.4742 45.9383 37.8613 45.1721 37.4282 44.1473C36.9952 43.1225 36.7756 41.8374 36.7756 40.2936C36.7756 37.9827 37.2649 36.1996 38.2449 34.9452C39.2249 33.6889 40.5413 33.0603 42.1933 33.0603C43.2312 33.0603 44.1054 33.3059 44.8147 33.7931C45.5222 34.2803 46.1386 35.0151 46.6631 35.9988C46.9805 36.5943 47.2659 37.0158 47.5235 37.2603C47.7793 37.5048 48.1641 37.6249 48.6793 37.6249C49.1385 37.6249 49.5357 37.449 49.8605 37.0962C50.1853 36.7434 50.3454 36.3396 50.3454 35.8785C50.3454 35.0385 50.0111 34.1452 49.3428 33.2025C48.6745 32.2598 47.7134 31.4693 46.459 30.8291C45.2046 30.1888 43.7714 29.8666 42.1642 29.8666Z" fill="#005E83"/>
</g>
</svg>
