<svg width="20" height="20" viewBox="0 0 20 20" fill="none" xmlns="http://www.w3.org/2000/svg">
<path d="M16.66 5.99091C16.4842 5.99507 16.3171 6.06854 16.1952 6.19534L9.99989 12.3906L3.80458 6.19534C3.74245 6.13147 3.66816 6.08071 3.58608 6.04604C3.504 6.01138 3.41581 5.99352 3.32671 5.99351C3.19409 5.99355 3.06449 6.03313 2.95449 6.10721C2.84448 6.18128 2.75907 6.28648 2.70916 6.40936C2.65926 6.53223 2.64713 6.6672 2.67433 6.797C2.70154 6.9268 2.76683 7.04555 2.86187 7.13804L9.52854 13.8047C9.65357 13.9297 9.82311 13.9999 9.99989 13.9999C10.1767 13.9999 10.3462 13.9297 10.4712 13.8047L17.1379 7.13804C17.2347 7.04494 17.3012 6.92477 17.3285 6.79327C17.3559 6.66176 17.3429 6.52506 17.2912 6.40107C17.2396 6.27708 17.1517 6.17158 17.0391 6.09839C16.9264 6.0252 16.7943 5.98774 16.66 5.99091Z" fill="black"/>
</svg>
