<svg width="20" height="20" viewBox="0 0 20 20"  xmlns="http://www.w3.org/2000/svg">
<path d="M6.36328 2.66675C3.95328 2.66675 2 4.62003 2 7.03003C2 11.225 6.86598 15.2333 9.13932 17.0183C9.14149 17.0201 9.14366 17.0218 9.14583 17.0235C9.16141 17.0357 9.18259 17.0532 9.19792 17.0652L9.19922 17.0639C9.42987 17.2382 9.71091 17.3328 10 17.3334C10.2895 17.333 10.5711 17.2384 10.8021 17.0639V17.0652C10.8066 17.0617 10.8132 17.057 10.8177 17.0535C10.8211 17.0508 10.826 17.0471 10.8294 17.0444C10.8338 17.0405 10.8381 17.0366 10.8424 17.0326C13.1087 15.254 18 11.235 18 7.03003C18 4.62003 16.0467 2.66675 13.6367 2.66675C11.3334 2.66675 10 4.66675 10 4.66675C10 4.66675 8.66662 2.66675 6.36328 2.66675Z" />
</svg>
