<svg width="24" height="25" viewBox="0 0 24 25"  xmlns="http://www.w3.org/2000/svg">
<path d="M7.63555 2.8999C4.31127 2.8999 1.59961 5.61157 1.59961 8.93584C1.59961 11.9264 3.92005 14.9677 6.12773 17.3952C8.33542 19.8227 10.5371 21.5952 10.5371 21.5952C10.5438 21.6005 10.5506 21.6057 10.5574 21.6108C10.9138 21.88 11.361 22.055 11.8465 22.0874C11.897 22.0965 11.9483 22.1007 11.9996 22.0999C12.0504 22.1006 12.1012 22.0964 12.1512 22.0874C12.1538 22.0869 12.1564 22.0864 12.159 22.0858C12.6419 22.0523 13.0869 21.8788 13.4418 21.6108C13.4487 21.6057 13.4554 21.6005 13.4621 21.5952C13.4621 21.5952 15.6638 19.8227 17.8715 17.3952C20.0792 14.9677 22.3996 11.9264 22.3996 8.93584C22.3996 5.61157 19.6879 2.8999 16.3637 2.8999C14.2724 2.8999 12.7916 4.05074 11.9996 4.86553C11.2077 4.05074 9.72677 2.8999 7.63555 2.8999ZM7.63555 4.4999C9.82051 4.4999 11.1499 6.29386 11.2824 6.47959C11.3501 6.60996 11.4525 6.71916 11.5781 6.79523C11.7038 6.8713 11.848 6.9113 11.9949 6.91084C12.0012 6.91091 12.0074 6.91091 12.0137 6.91084C12.0199 6.91039 12.0262 6.90987 12.0324 6.90928C12.0528 6.90849 12.0731 6.90693 12.0934 6.90459C12.2234 6.89032 12.3479 6.84441 12.456 6.77086C12.5642 6.69731 12.6526 6.59838 12.7137 6.48271C12.8396 6.30591 14.1725 4.4999 16.3637 4.4999C18.8234 4.4999 20.7996 6.47611 20.7996 8.93584C20.7996 11.0181 18.7994 13.996 16.6871 16.3187C14.582 18.6334 12.4858 20.3243 12.4715 20.3358C12.331 20.4404 12.1749 20.4999 11.9996 20.4999C11.8243 20.4999 11.6682 20.4404 11.5277 20.3358C11.5134 20.3243 9.41724 18.6334 7.31211 16.3187C5.19979 13.996 3.19961 11.0181 3.19961 8.93584C3.19961 6.47611 5.17582 4.4999 7.63555 4.4999Z" />
</svg>
