<svg width="56" height="56" viewBox="0 0 56 56"  xmlns="http://www.w3.org/2000/svg">
<g id="icons8-innovation 1">
<path id="Vector" d="M26.6584 3.74066C16.541 3.48306 7.47506 10.8819 5.87346 20.8761C4.67506 28.3577 7.52525 35.2295 12.5709 39.6703C14.1202 41.033 14.9334 43.049 14.9334 45.1136V52.2667H33.6V49.3573C33.6 47.7501 34.627 46.325 36.1521 45.8172L42.2479 43.7865C43.7711 43.2769 44.8 41.8499 44.8 40.2427V33.1224L49.0328 31.6641C49.4258 31.555 49.7722 31.3202 50.0191 30.9956C50.2659 30.671 50.3998 30.2745 50.4 29.8667C50.3987 29.4372 50.2494 29.0213 49.9771 28.6891L49.9261 28.6271C49.9083 28.6061 49.8901 28.5854 49.8714 28.5651L44.7235 22.3964C43.9753 12.1056 37.0753 4.00306 26.6584 3.74066ZM26.1443 14.9334C30.2633 14.9413 33.6 18.2808 33.6 22.4C33.6 24.431 32.7815 26.2569 31.4599 27.5953C30.829 28.2337 30.3996 29.023 30.1401 29.8667H22.1266C21.8764 29.0323 21.4613 28.2535 20.836 27.6282C19.0981 25.8884 18.2114 23.3093 18.8927 20.5261C19.5386 17.8866 21.6945 15.7572 24.3396 15.1412C24.9526 14.9988 25.5559 14.9322 26.1443 14.9334ZM22.4 31.7334H29.8485C29.7607 33.5142 28.53 35.1263 26.7604 35.4157C24.4215 35.7946 22.4 34.0014 22.4 31.7334Z" />
</g>
</svg>
