<svg width="67" height="66" viewBox="0 0 67 66" fill="none" xmlns="http://www.w3.org/2000/svg">
<g id="Logo">
<path id="Vector" fill-rule="evenodd" clip-rule="evenodd" d="M4.72916 11.3828C3.77542 11.6087 2.76195 12.7778 2.69374 13.7308C2.67068 14.0529 2.68364 14.0947 2.89317 14.375C3.6881 15.4382 7.41719 19.4179 14.0826 26.3166C16.0339 28.3361 17.6064 30.0103 17.5772 30.037C17.548 30.0637 17.0672 30.3649 16.5088 30.7064C14.4744 31.9502 13.4643 32.7194 12.268 33.9358C10.5101 35.7233 9.49568 37.6015 9.15391 39.7014C9.04043 40.3987 9.07579 41.8482 9.2232 42.54C9.99125 46.1447 12.9489 49.3343 17.7033 51.6852C19.5078 52.5774 21.3547 53.2552 23.4565 53.7966C26.882 54.6789 29.1525 54.9375 33.5015 54.9411C37.5859 54.9444 39.891 54.7157 42.9151 54.0073C45.4555 53.4122 47.4492 52.7036 49.449 51.6848C51.5561 50.6115 53.0745 49.5321 54.6595 47.9809C56.4836 46.1957 57.4958 44.5022 57.9113 42.54C58.0747 41.7684 58.0587 40.1903 57.8788 39.3399C57.6123 38.0804 57.1164 36.8725 56.5278 36.0492C55.3793 34.4426 52.8714 32.0289 51.5484 31.2568C51.33 31.1294 50.944 30.9082 50.6907 30.7653C50.0924 30.4279 49.8073 30.1878 49.8077 30.0219C49.8079 29.9496 49.8683 29.79 49.9421 29.6672C50.1654 29.2956 52.3422 26.9986 58.4382 20.7017C61.0746 17.9784 63.1542 15.7874 63.8928 14.9546C64.4321 14.3466 64.5332 14.107 64.484 13.5533C64.4419 13.079 64.2552 12.7506 63.7313 12.2293C63.2033 11.7039 62.6344 11.3677 62.2594 11.3593C61.5933 11.3445 60.2656 12.6794 55.6294 18.0258C53.8368 20.0929 51.2389 23.0592 49.8919 24.577C49.5971 24.9091 48.8022 25.8329 48.1255 26.6299C47.4487 27.4269 46.7727 28.1983 46.6232 28.3441L46.3515 28.6092L45.7948 28.5076C45.4887 28.4517 44.5394 28.2319 43.6852 28.0191C41.176 27.3937 40.2852 27.2555 37.3839 27.0414C35.6443 26.9131 31.5519 26.8961 30.1269 27.0112C27.0216 27.262 24.4805 27.6854 22.4219 28.2949C21.962 28.4311 21.4233 28.557 21.225 28.5746L20.8643 28.6067L20.2942 27.9806C18.952 26.5063 14.0258 20.8995 10.3543 16.6672C7.52476 13.4056 5.99027 11.8216 5.33953 11.4904C5.0741 11.3554 4.94269 11.3322 4.72916 11.3828ZM28.9323 29.9809C27.2696 30.0695 23.5359 30.8767 23.424 31.1716C23.3285 31.4231 24.1373 32.5329 25.7022 34.2979C27.1465 35.9268 27.717 36.4166 28.5855 36.7732C29.8361 37.2868 30.4887 37.6813 30.9971 38.2313C31.526 38.8033 31.8134 39.4778 31.8684 40.2757C31.9115 40.9034 31.7683 41.3125 31.3391 41.7872C30.9726 42.1926 30.6398 42.3985 30.221 42.4788C29.3715 42.6416 28.0338 41.9792 27.2352 41.0003C26.9939 40.7045 26.8461 40.4316 26.4341 39.521C25.9826 38.5232 25.158 37.5544 22.1778 34.52L19.9029 32.2039L19.3407 32.4889C14.7637 34.8081 12.1186 37.7358 11.9058 40.7179C11.8621 41.3302 11.9512 41.8389 12.2307 42.5712C12.7962 44.0532 14.2017 45.8949 15.6821 47.0938C16.8938 48.0751 20.3157 49.8691 21.2732 50.025C21.4741 50.0577 21.8281 50.1787 22.06 50.2939C22.5034 50.5142 25.0566 51.2535 26.1289 51.4721C27.9861 51.8508 30.2936 51.9919 33.7404 51.9375C37.2127 51.8826 38.7745 51.7828 40.6075 51.4986C42.1728 51.2559 44.0256 50.7451 45.8355 50.0573C47.7423 49.3325 50.4553 47.9262 50.5542 47.6113C50.5749 47.5454 50.664 47.4763 50.7521 47.4579C51.0329 47.3993 51.2733 47.2493 51.7118 46.8592C52.4499 46.2026 53.6668 44.8031 54.2209 43.9737C54.8057 43.0981 55.1313 41.9958 55.1436 40.8494C55.153 39.9685 55.0907 39.665 54.7342 38.8568C54.5951 38.5413 54.4637 38.2013 54.4422 38.1012C54.3871 37.8444 53.7061 36.949 53.0029 36.2087C52.0277 35.1822 50.6876 34.1561 49.2698 33.3502C48.4968 32.9108 47.2035 32.215 47.1598 32.215C47.1106 32.215 43.4977 36.0004 42.7836 36.8001C41.8397 37.8572 41.161 38.7586 40.7909 39.4473C39.6682 41.5362 38.6388 42.4173 37.2934 42.441C36.8641 42.4486 36.7736 42.429 36.4163 42.2513C35.7299 41.91 35.2336 41.22 35.1848 40.539C35.1378 39.8818 35.5709 38.9804 36.3335 38.1481C36.9988 37.4221 37.7009 36.9773 38.4212 36.8254C38.9746 36.7088 39.2123 36.5256 40.4805 35.238C41.9333 33.7631 43.4446 32.041 43.7569 31.5044C44.0118 31.0666 43.8758 30.9891 42.2508 30.6467C40.2862 30.2326 39.7469 30.1732 36.76 30.0414C34.8768 29.9583 30.0544 29.921 28.9323 29.9809Z" fill="white"/>
</g>
</svg>
