<svg width="20" height="20" viewBox="0 0 20 20" fill="none" xmlns="http://www.w3.org/2000/svg">
<path d="M4.66602 2.66675C3.56937 2.66675 2.66602 3.5701 2.66602 4.66675V15.3334C2.66602 16.4301 3.56937 17.3334 4.66602 17.3334H12.9993C13.1761 17.3334 13.3457 17.2631 13.4707 17.1381L17.1374 13.4714C17.2624 13.3464 17.3326 13.1769 17.3327 13.0001V4.66675C17.3327 3.5701 16.4293 2.66675 15.3327 2.66675H4.66602ZM4.66602 4.00008H15.3327C15.7094 4.00008 15.9993 4.29006 15.9993 4.66675V12.6667H13.9993C13.2627 12.6667 12.666 13.2634 12.666 14.0001V16.0001H4.66602C4.28933 16.0001 3.99935 15.7101 3.99935 15.3334V4.66675C3.99935 4.29006 4.28933 4.00008 4.66602 4.00008ZM6.66602 7.33342C6.57767 7.33217 6.48997 7.34849 6.40799 7.38143C6.32601 7.41437 6.25139 7.46328 6.18848 7.52531C6.12557 7.58734 6.07561 7.66125 6.04151 7.74276C6.00741 7.82426 5.98985 7.91173 5.98985 8.00008C5.98985 8.08843 6.00741 8.1759 6.04151 8.25741C6.07561 8.33891 6.12557 8.41283 6.18848 8.47485C6.25139 8.53688 6.32601 8.58579 6.40799 8.61873C6.48997 8.65168 6.57767 8.668 6.66602 8.66675H9.33268C9.42102 8.668 9.50873 8.65168 9.59071 8.61873C9.67269 8.58579 9.7473 8.53688 9.81022 8.47485C9.87313 8.41283 9.92309 8.33891 9.95719 8.25741C9.99128 8.1759 10.0088 8.08843 10.0088 8.00008C10.0088 7.91173 9.99128 7.82426 9.95719 7.74276C9.92309 7.66125 9.87313 7.58734 9.81022 7.52531C9.7473 7.46328 9.67269 7.41437 9.59071 7.38143C9.50873 7.34849 9.42102 7.33217 9.33268 7.33342H6.66602ZM11.9993 7.33342C11.911 7.33217 11.8233 7.34849 11.7413 7.38143C11.6593 7.41437 11.5847 7.46328 11.5218 7.52531C11.4589 7.58734 11.4089 7.66125 11.3748 7.74276C11.3407 7.82426 11.3232 7.91173 11.3232 8.00008C11.3232 8.08843 11.3407 8.1759 11.3748 8.25741C11.4089 8.33891 11.4589 8.41283 11.5218 8.47485C11.5847 8.53688 11.6593 8.58579 11.7413 8.61873C11.8233 8.65168 11.911 8.668 11.9993 8.66675H13.3327C13.421 8.668 13.5087 8.65168 13.5907 8.61873C13.6727 8.58579 13.7473 8.53688 13.8102 8.47485C13.8731 8.41283 13.9231 8.33891 13.9572 8.25741C13.9913 8.1759 14.0088 8.08843 14.0088 8.00008C14.0088 7.91173 13.9913 7.82426 13.9572 7.74276C13.9231 7.66125 13.8731 7.58734 13.8102 7.52531C13.7473 7.46328 13.6727 7.41437 13.5907 7.38143C13.5087 7.34849 13.421 7.33217 13.3327 7.33342H11.9993ZM6.66602 10.0001C6.57767 9.99883 6.48997 10.0152 6.40799 10.0481C6.32601 10.081 6.25139 10.1299 6.18848 10.192C6.12557 10.254 6.07561 10.3279 6.04151 10.4094C6.00741 10.4909 5.98985 10.5784 5.98985 10.6667C5.98985 10.7551 6.00741 10.8426 6.04151 10.9241C6.07561 11.0056 6.12557 11.0795 6.18848 11.1415C6.25139 11.2036 6.32601 11.2525 6.40799 11.2854C6.48997 11.3183 6.57767 11.3347 6.66602 11.3334H11.9993C12.0877 11.3347 12.1754 11.3183 12.2574 11.2854C12.3394 11.2525 12.414 11.2036 12.4769 11.1415C12.5398 11.0795 12.5898 11.0056 12.6239 10.9241C12.658 10.8426 12.6755 10.7551 12.6755 10.6667C12.6755 10.5784 12.658 10.4909 12.6239 10.4094C12.5898 10.3279 12.5398 10.254 12.4769 10.192C12.414 10.1299 12.3394 10.081 12.2574 10.0481C12.1754 10.0152 12.0877 9.99883 11.9993 10.0001H6.66602Z" fill="#005E83"/>
</svg>
