<svg width="30" height="30" viewBox="0 0 30 30" fill="none" xmlns="http://www.w3.org/2000/svg">
<path d="M6 3C5.73479 3 5.48043 3.10536 5.2929 3.29289C5.10536 3.48043 5 3.73478 5 4C5 4.0013 5 4.0026 5 4.00391V15V25.9961C5 25.9974 5 25.9987 5 26C5 26.2652 5.10536 26.5196 5.2929 26.7071C5.48043 26.8946 5.73479 27 6 27C6.20816 26.9994 6.41095 26.9339 6.58008 26.8125L6.58203 26.8145L26.416 15.9082C26.5901 15.8286 26.7376 15.7007 26.8411 15.5397C26.9446 15.3787 26.9998 15.1914 27 15C27.0001 14.8032 26.9422 14.6108 26.8334 14.4468C26.7247 14.2829 26.57 14.1546 26.3887 14.0781L6.58203 3.18555H6.58008C6.41072 3.06489 6.20795 3.00003 6 3Z" fill="#005E83"/>
</svg>
