<svg width="56" height="56" viewBox="0 0 56 56" fill="none" xmlns="http://www.w3.org/2000/svg">
<g id="icons8-running_rabbit 1" clip-path="url(#clip0_201_977)">
<path id="Vector" d="M27.0669 7.46655C25.5213 7.46655 24.2669 8.72095 24.2669 10.2666C24.2669 11.8122 25.5213 13.0666 27.0669 13.0666C31.7335 13.0666 35.9659 12.4873 38.4747 14.8785C37.0784 15.9967 37.2738 18.6666 34.5336 18.6666C32.9282 18.6666 29.1426 16.7999 24.2669 16.7999C18.7699 16.7999 14.0397 19.8905 13.2091 27.4348C12.0184 26.6435 10.4625 26.1332 9.33355 26.1332C7.27089 26.1332 5.60022 27.8039 5.60022 29.8666C5.60022 31.9292 7.27089 33.5999 9.33355 33.5999C10.6192 33.5999 12.4762 32.9514 13.694 31.9629C15.0385 34.2409 18.197 35.3492 18.5539 35.452C19.8587 35.8253 23.1257 35.7 23.1257 37.5629C23.1257 39.267 21.1075 40.7746 20.6393 42.3244C20.5705 42.52 20.5347 42.7258 20.5336 42.9332C20.5336 43.4283 20.7302 43.9031 21.0803 44.2532C21.4304 44.6032 21.9051 44.7999 22.4002 44.7999H22.4039C29.236 44.7999 30.528 48.4753 32.1346 50.903C32.1601 50.9475 32.1869 50.9913 32.2148 51.0343C32.2263 51.0512 32.2397 51.0721 32.2513 51.0889H32.2549C32.5134 51.4526 32.8551 51.7492 33.2515 51.954C33.6478 52.1589 34.0874 52.266 34.5336 52.2666C35.2762 52.2666 35.9883 51.9716 36.5134 51.4464C37.0385 50.9213 37.3335 50.2092 37.3335 49.4666C37.3333 49.2829 37.315 49.0997 37.2789 48.9197C36.699 43.626 28.0002 41.0666 28.0002 41.0666C28.0002 41.0666 33.6002 37.8522 33.6002 32.6666C33.6002 27.6602 31.7335 26.1332 31.7335 26.1332C31.7335 26.1332 37.3335 27.9982 37.3335 32.5827C37.3335 36.0043 36.4002 39.1999 36.4002 39.1999C36.4002 39.1999 41.0669 36.3514 41.0669 24.2666C41.0669 24.2666 42.7282 26.1332 46.6669 26.1332C49.381 26.1332 50.4002 26.2807 50.4002 20.5332C50.4002 18.801 49.0263 13.0666 41.0669 13.0666C37.3335 9.33322 31.7335 7.46655 27.0669 7.46655ZM5.60022 11.1999C5.35286 11.1964 5.10728 11.2421 4.87774 11.3343C4.6482 11.4266 4.43928 11.5635 4.26312 11.7372C4.08696 11.9109 3.94708 12.1178 3.85161 12.346C3.75613 12.5743 3.70697 12.8192 3.70697 13.0666C3.70697 13.3139 3.75613 13.5588 3.85161 13.7871C3.94708 14.0153 4.08696 14.2222 4.26312 14.3959C4.43928 14.5696 4.6482 14.7065 4.87774 14.7988C5.10728 14.891 5.35286 14.9367 5.60022 14.9332H11.2002C11.4476 14.9367 11.6932 14.891 11.9227 14.7988C12.1522 14.7065 12.3612 14.5696 12.5373 14.3959C12.7135 14.2222 12.8534 14.0153 12.9488 13.7871C13.0443 13.5588 13.0935 13.3139 13.0935 13.0666C13.0935 12.8192 13.0443 12.5743 12.9488 12.346C12.8534 12.1178 12.7135 11.9109 12.5373 11.7372C12.3612 11.5635 12.1522 11.4266 11.9227 11.3343C11.6932 11.2421 11.4476 11.1964 11.2002 11.1999H5.60022ZM1.86689 18.6666C1.61953 18.6631 1.37395 18.7088 1.14441 18.801C0.914864 18.8932 0.705945 19.0302 0.529788 19.2039C0.353632 19.3775 0.213751 19.5845 0.118275 19.8127C0.0227993 20.0409 -0.0263672 20.2858 -0.0263672 20.5332C-0.0263672 20.7806 0.0227993 21.0255 0.118275 21.2537C0.213751 21.4819 0.353632 21.6889 0.529788 21.8626C0.705945 22.0363 0.914864 22.1732 1.14441 22.2654C1.37395 22.3577 1.61953 22.4034 1.86689 22.3999H7.46689C7.71424 22.4034 7.95983 22.3577 8.18937 22.2654C8.41891 22.1732 8.62783 22.0363 8.80398 21.8626C8.98014 21.6889 9.12002 21.4819 9.2155 21.2537C9.31097 21.0255 9.36014 20.7806 9.36014 20.5332C9.36014 20.2858 9.31097 20.0409 9.2155 19.8127C9.12002 19.5845 8.98014 19.3775 8.80398 19.2039C8.62783 19.0302 8.41891 18.8932 8.18937 18.801C7.95983 18.7088 7.71424 18.6631 7.46689 18.6666H1.86689Z" fill="#005E83"/>
</g>
<defs>
<clipPath id="clip0_201_977">
<rect width="56" height="56" fill="white"/>
</clipPath>
</defs>
</svg>
