<svg width="30" height="30" viewBox="0 0 30 30" fill="none" xmlns="http://www.w3.org/2000/svg">
<rect width="30" height="30" fill="#F5F5F5"/>
<g id="Icons">
<path d="M-239 -98C-239 -99.1046 -238.105 -100 -237 -100H335C336.105 -100 337 -99.1046 337 -98V345C337 346.105 336.105 347 335 347H-237C-238.105 347 -239 346.105 -239 345V-98Z" fill="white"/>
<g id="icons8-running_rabbit 1" clip-path="url(#clip0_2_6)">
<path id="Vector" d="M14.5 4C13.672 4 13 4.672 13 5.5C13 6.328 13.672 7 14.5 7C17 7 19.2673 6.6897 20.6113 7.9707C19.8633 8.5697 19.968 10 18.5 10C17.64 10 15.612 9 13 9C10.0552 9 7.52113 10.6557 7.07616 14.6973C6.43829 14.2734 5.60477 14 4.99999 14C3.89499 14 2.99999 14.895 2.99999 16C2.99999 17.105 3.89499 18 4.99999 18C5.68874 18 6.68353 17.6526 7.33593 17.123C8.05624 18.3434 9.74825 18.9371 9.93944 18.9922C10.6384 19.1922 12.3887 19.125 12.3887 20.123C12.3887 21.036 11.3075 21.8436 11.0566 22.6738C11.0198 22.7787 11.0006 22.8889 11 23C11 23.2652 11.1053 23.5196 11.2929 23.7071C11.4804 23.8946 11.7348 24 12 24H12.0019C15.662 24 16.3542 25.969 17.2148 27.2695C17.2285 27.2934 17.2428 27.3168 17.2578 27.3398C17.264 27.3489 17.2711 27.3601 17.2773 27.3691H17.2793C17.4178 27.5639 17.6008 27.7228 17.8132 27.8326C18.0255 27.9423 18.261 27.9997 18.5 28C18.8978 28 19.2793 27.842 19.5606 27.5607C19.842 27.2794 20 26.8978 20 26.5C19.9999 26.4016 19.99 26.3035 19.9707 26.207C19.6601 23.3712 15 22 15 22C15 22 18 20.278 18 17.5C18 14.818 17 14 17 14C17 14 20 14.9991 20 17.4551C20 19.2881 19.5 21 19.5 21C19.5 21 22 19.474 22 13C22 13 22.89 14 25 14C26.454 14 27 14.079 27 11C27 10.072 26.264 7 22 7C20 5 17 4 14.5 4ZM2.99999 6C2.86748 5.99813 2.73592 6.02261 2.61295 6.07202C2.48998 6.12143 2.37806 6.1948 2.28369 6.28784C2.18932 6.38088 2.11438 6.49176 2.06324 6.61401C2.01209 6.73627 1.98575 6.86747 1.98575 7C1.98575 7.13253 2.01209 7.26373 2.06324 7.38599C2.11438 7.50824 2.18932 7.61912 2.28369 7.71216C2.37806 7.8052 2.48998 7.87857 2.61295 7.92798C2.73592 7.97739 2.86748 8.00187 2.99999 8H5.99999C6.1325 8.00187 6.26407 7.97739 6.38703 7.92798C6.51 7.87857 6.62192 7.8052 6.71629 7.71216C6.81066 7.61912 6.8856 7.50824 6.93675 7.38599C6.98789 7.26373 7.01423 7.13253 7.01423 7C7.01423 6.86747 6.98789 6.73627 6.93675 6.61401C6.8856 6.49176 6.81066 6.38088 6.71629 6.28784C6.62192 6.1948 6.51 6.12143 6.38703 6.07202C6.26407 6.02261 6.1325 5.99813 5.99999 6H2.99999ZM0.999991 10C0.867479 9.99813 0.735916 10.0226 0.612948 10.072C0.489979 10.1214 0.378058 10.1948 0.283689 10.2878C0.189319 10.3809 0.114383 10.4918 0.0632352 10.614C0.0120875 10.7363 -0.0142517 10.8675 -0.0142517 11C-0.0142517 11.1325 0.0120875 11.2637 0.0632352 11.386C0.114383 11.5082 0.189319 11.6191 0.283689 11.7122C0.378058 11.8052 0.489979 11.8786 0.612948 11.928C0.735916 11.9774 0.867479 12.0019 0.999991 12H3.99999C4.1325 12.0019 4.26407 11.9774 4.38703 11.928C4.51 11.8786 4.62192 11.8052 4.71629 11.7122C4.81066 11.6191 4.8856 11.5082 4.93675 11.386C4.98789 11.2637 5.01423 11.1325 5.01423 11C5.01423 10.8675 4.98789 10.7363 4.93675 10.614C4.8856 10.4918 4.81066 10.3809 4.71629 10.2878C4.62192 10.1948 4.51 10.1214 4.38703 10.072C4.26407 10.0226 4.1325 9.99813 3.99999 10H0.999991Z" fill="black"/>
</g>
<path d="M-237 -99H335V-101H-237V-99ZM336 -98V345H338V-98H336ZM335 346H-237V348H335V346ZM-238 345V-98H-240V345H-238ZM-237 346C-237.552 346 -238 345.552 -238 345H-240C-240 346.657 -238.657 348 -237 348V346ZM336 345C336 345.552 335.552 346 335 346V348C336.657 348 338 346.657 338 345H336ZM335 -99C335.552 -99 336 -98.5523 336 -98H338C338 -99.6568 336.657 -101 335 -101V-99ZM-237 -101C-238.657 -101 -240 -99.6568 -240 -98H-238C-238 -98.5523 -237.552 -99 -237 -99V-101Z" fill="black" fill-opacity="0.1"/>
</g>
<defs>
<clipPath id="clip0_2_6">
<rect width="30" height="30" fill="white"/>
</clipPath>
</defs>
</svg>
