<svg width="24" height="24" viewBox="0 0 24 24" fill="none" xmlns="http://www.w3.org/2000/svg">
<path d="M12 2.3999C9.62512 2.3999 7.44226 3.26665 5.76562 4.6999C5.68159 4.76681 5.61188 4.84995 5.56066 4.94437C5.50944 5.03879 5.47776 5.14256 5.46751 5.24948C5.45726 5.35641 5.46864 5.46431 5.50098 5.56674C5.53332 5.66917 5.58596 5.76405 5.65575 5.8457C5.72555 5.92735 5.81107 5.99412 5.90722 6.04201C6.00337 6.0899 6.10818 6.11794 6.2154 6.12446C6.32262 6.13098 6.43006 6.11583 6.5313 6.07994C6.63254 6.04404 6.72552 5.98813 6.80469 5.91553C8.20326 4.71998 10.0133 3.9999 12 3.9999C16.1572 3.9999 19.5608 7.15024 19.9609 11.1999H17.6L20.8 15.9999L24 11.1999H21.5594C21.1503 6.28123 17.0223 2.3999 12 2.3999ZM3.2 7.9999L0 12.7999H2.44062C2.84966 17.7186 6.97773 21.5999 12 21.5999C14.3749 21.5999 16.5577 20.7332 18.2344 19.2999C18.3184 19.233 18.3881 19.1499 18.4393 19.0554C18.4906 18.961 18.5222 18.8573 18.5325 18.7503C18.5427 18.6434 18.5314 18.5355 18.499 18.4331C18.4667 18.3306 18.414 18.2358 18.3442 18.1541C18.2745 18.0724 18.1889 18.0057 18.0928 17.9578C17.9966 17.9099 17.8918 17.8819 17.7846 17.8753C17.6774 17.8688 17.5699 17.884 17.4687 17.9199C17.3675 17.9558 17.2745 18.0117 17.1953 18.0843C15.7967 19.2798 13.9867 19.9999 12 19.9999C7.84275 19.9999 4.43921 16.8496 4.03906 12.7999H6.4L3.2 7.9999Z" fill="#005E83"/>
</svg>
