<svg width="56" height="56" viewBox="0 0 56 56" fill="none" xmlns="http://www.w3.org/2000/svg">
<g id="icons8-target 1">
<path id="Vector" d="M27.9706 1.84105C27.4762 1.84878 27.005 2.05236 26.6605 2.4071C26.316 2.76185 26.1263 3.23879 26.1331 3.73324V5.69469C15.2733 6.59776 6.59762 15.2734 5.69455 26.1332H3.7331C3.48574 26.1297 3.24016 26.1754 3.01062 26.2677C2.78108 26.3599 2.57216 26.4969 2.396 26.6705C2.21984 26.8442 2.07996 27.0512 1.98449 27.2794C1.88901 27.5076 1.83984 27.7525 1.83984 27.9999C1.83984 28.2473 1.88901 28.4922 1.98449 28.7204C2.07996 28.9486 2.21984 29.1556 2.396 29.3293C2.57216 29.503 2.78108 29.6399 3.01062 29.7321C3.24016 29.8244 3.48574 29.8701 3.7331 29.8666H5.69455C6.59762 40.7264 15.2733 49.402 26.1331 50.3051V52.2666C26.1296 52.5139 26.1753 52.7595 26.2675 52.989C26.3598 53.2186 26.4967 53.4275 26.6704 53.6037C26.8441 53.7798 27.051 53.9197 27.2793 54.0152C27.5075 54.1107 27.7524 54.1598 27.9998 54.1598C28.2471 54.1598 28.4921 54.1107 28.7203 54.0152C28.9485 53.9197 29.1554 53.7798 29.3291 53.6037C29.5028 53.4275 29.6398 53.2186 29.732 52.989C29.8242 52.7595 29.8699 52.5139 29.8664 52.2666V50.3051C40.7262 49.402 49.4019 40.7264 50.305 29.8666H52.2664C52.5138 29.8701 52.7594 29.8244 52.9889 29.7321C53.2185 29.6399 53.4274 29.503 53.6035 29.3293C53.7797 29.1556 53.9196 28.9486 54.015 28.7204C54.1105 28.4922 54.1597 28.2473 54.1597 27.9999C54.1597 27.7525 54.1105 27.5076 54.015 27.2794C53.9196 27.0512 53.7797 26.8442 53.6035 26.6705C53.4274 26.4969 53.2185 26.3599 52.9889 26.2677C52.7594 26.1754 52.5138 26.1297 52.2664 26.1332H50.305C49.4019 15.2734 40.7262 6.59776 29.8664 5.69469V3.73324C29.8699 3.4835 29.8231 3.23561 29.729 3.00425C29.6349 2.7729 29.4953 2.56278 29.3185 2.38634C29.1418 2.2099 28.9314 2.07073 28.6998 1.97706C28.4683 1.8834 28.2203 1.83715 27.9706 1.84105ZM26.1331 9.42438V11.1999C26.1296 11.4473 26.1753 11.6928 26.2675 11.9224C26.3598 12.1519 26.4967 12.3608 26.6704 12.537C26.8441 12.7132 27.051 12.853 27.2793 12.9485C27.5075 13.044 27.7524 13.0932 27.9998 13.0932C28.2471 13.0932 28.4921 13.044 28.7203 12.9485C28.9485 12.853 29.1554 12.7132 29.3291 12.537C29.5028 12.3608 29.6398 12.1519 29.732 11.9224C29.8242 11.6928 29.8699 11.4473 29.8664 11.1999V9.42438C38.7013 10.2973 45.7024 17.2984 46.5753 26.1332H44.7998C44.5524 26.1297 44.3068 26.1754 44.0773 26.2677C43.8477 26.3599 43.6388 26.4969 43.4627 26.6705C43.2865 26.8442 43.1466 27.0512 43.0512 27.2794C42.9557 27.5076 42.9065 27.7525 42.9065 27.9999C42.9065 28.2473 42.9557 28.4922 43.0512 28.7204C43.1466 28.9486 43.2865 29.1556 43.4627 29.3293C43.6388 29.503 43.8477 29.6399 44.0773 29.7321C44.3068 29.8244 44.5524 29.8701 44.7998 29.8666H46.5753C45.7024 38.7014 38.7013 45.7025 29.8664 46.5754V44.7999C29.8699 44.5502 29.8231 44.3023 29.729 44.0709C29.6349 43.8396 29.4953 43.6294 29.3185 43.453C29.1418 43.2766 28.9314 43.1374 28.6998 43.0437C28.4683 42.9501 28.2203 42.9038 27.9706 42.9077C27.4762 42.9154 27.005 43.119 26.6605 43.4738C26.316 43.8285 26.1263 44.3055 26.1331 44.7999V46.5754C17.2983 45.7025 10.2972 38.7014 9.42424 29.8666H11.1998C11.4471 29.8701 11.6927 29.8244 11.9222 29.7321C12.1518 29.6399 12.3607 29.503 12.5369 29.3293C12.713 29.1556 12.8529 28.9486 12.9484 28.7204C13.0438 28.4922 13.093 28.2473 13.093 27.9999C13.093 27.7525 13.0438 27.5076 12.9484 27.2794C12.8529 27.0512 12.713 26.8442 12.5369 26.6705C12.3607 26.4969 12.1518 26.3599 11.9222 26.2677C11.6927 26.1754 11.4471 26.1297 11.1998 26.1332H9.42424C10.2972 17.2984 17.2983 10.2973 26.1331 9.42438Z" fill="#005E83"/>
</g>
</svg>
